<svg xmlns="http://www.w3.org/2000/svg" xmlns:xlink="http://www.w3.org/1999/xlink" version="1.1" x="0px" y="0px" viewBox="0 0 100 125" enable-background="new 0 0 100 100" xml:space="preserve"><path fill-rule="evenodd" clip-rule="evenodd" d="M61.842,14.562l-0.02,0.015l-0.049,0.044l-0.05,0.054l-0.01,0.01l-0.06,0.064  l-0.029,0.02l-0.039,0.039l-0.059,0.059l0,0l-0.06,0.06l-0.039,0.039l-0.029,0.02l-0.06,0.064l-0.01,0.015l-0.06,0.044l-0.049,0.049  l-0.011,0.015l-0.058,0.059l-0.03,0.02l-0.039,0.04l-0.119,0.118l-0.039,0.04l-0.028,0.02l-0.247,0.241l-0.029,0.025l-0.04,0.039  l-0.059,0.054v0.005l-0.068,0.059l-0.03,0.029l-0.029,0.03l-0.06,0.06l-0.01,0.009l-0.058,0.049l-0.051,0.04l-0.009,0.02  l-0.069,0.06l-0.021,0.02l-0.039,0.039l-0.06,0.054l-0.009,0.005l-0.06,0.059l-0.028,0.03l-0.03,0.029l-0.068,0.06l-0.01,0.009  l-0.05,0.049l-0.049,0.039l-0.021,0.02l-0.059,0.059l-0.02,0.02l-0.049,0.039l-0.055,0.049l-0.005,0.009l-0.069,0.06l-0.029,0.029  l-0.03,0.03l-0.063,0.059h-0.005l-0.059,0.059l-0.045,0.039l-0.02,0.015l-0.063,0.059l-0.021,0.015l-0.049,0.044l-0.049,0.049  l-0.011,0.01l-0.068,0.054l-0.03,0.03l-0.028,0.03l-0.064,0.059L58.8,17.421l-0.06,0.054l-0.044,0.04l-0.024,0.02l-0.06,0.059  l-0.02,0.01l-0.05,0.044l-0.049,0.049l-0.009,0.01l-0.069,0.054l-0.029,0.029l-0.03,0.03l-0.068,0.059l0,0l-0.064,0.06l-0.039,0.034  l-0.025,0.024l-0.069,0.054l-0.009,0.015l-0.049,0.04l-0.055,0.049l-0.015,0.01l-0.06,0.059l-0.029,0.02l-0.039,0.04l-0.064,0.054  l-0.083,0.074l-0.021,0.02l-0.064,0.054l-0.044,0.035l-0.039,0.039l-0.06,0.054l-0.029,0.02l-0.079,0.074l0,0l-0.088,0.074  l-0.02,0.015l-0.064,0.059l-0.034,0.03l-0.049,0.04l-0.06,0.054l-0.03,0.025l-0.078,0.069l0,0l-0.088,0.079l-0.016,0.01  l-0.073,0.059l-0.03,0.03l-0.049,0.044l-0.06,0.044l-0.029,0.029l-0.078,0.064l-0.01,0.005l-0.078,0.079l-0.016,0.009l-0.074,0.06  l-0.029,0.029l-0.06,0.044l-0.049,0.044l-0.034,0.03l-0.074,0.06l-0.009,0.009l-0.09,0.074l-0.01,0.005l-0.078,0.069l-0.029,0.024  l-0.055,0.044l-0.049,0.045l-0.035,0.029l-0.073,0.059l-0.016,0.015l-0.088,0.069v0.004l-0.084,0.069l-0.024,0.024l-0.06,0.05  l-0.049,0.04l-0.04,0.029l-0.067,0.059l-0.021,0.01l-0.089,0.074v0.005l-0.086,0.069l-0.022,0.02l-0.064,0.049l-0.044,0.04  l-0.041,0.03l-0.067,0.059l-0.022,0.015l-0.085,0.073l0,0l-0.089,0.069l-0.022,0.02l-0.066,0.049l-0.041,0.039l-0.045,0.035  l-0.063,0.054l-0.025,0.02l-0.083,0.064l-0.006,0.005l-0.086,0.069l-0.02,0.015l-0.069,0.054l-0.039,0.034l-0.049,0.035  l-0.062,0.049l-0.027,0.024l-0.081,0.064l-0.008,0.01l-0.089,0.069l-0.014,0.01l-0.074,0.059l-0.034,0.03l-0.055,0.039l-0.057,0.049  l-0.031,0.02L53.369,22l-0.01,0.005l-0.088,0.074l-0.013,0.01l-0.076,0.059l-0.034,0.025l-0.057,0.044l-0.055,0.044l-0.034,0.029  l-0.076,0.06l-0.013,0.009l-0.088,0.069l-0.01,0.005l-0.262,0.201l-0.071,0.06l-0.017,0.009l-0.092,0.069H52.37l-0.083,0.069  l-0.027,0.02l-0.064,0.049l0.025,0.02l0.012,0.01l0.037,0.029l0.007,0.01L52.304,23l0.03,0.029l0.007,0.005l0.034,0.035l0.015,0.009  l0.022,0.021l0.034,0.029l0,0l0.037,0.03l0.021,0.02l0.014,0.015l0.037,0.034h0.005l0.029,0.03l0.025,0.02l0.01,0.01l0.036,0.03  l0.011,0.01l0.024,0.024l0.032,0.03l0.002,0.005l0.034,0.03l0.019,0.02l0.017,0.015l0.036,0.034l0,0l0.035,0.03l0.022,0.02  l0.012,0.01l0.034,0.034l0.008,0.005l0.027,0.03l0.027,0.024l0.007,0.005l0.032,0.034l0.014,0.015l0.023,0.02l0.031,0.03l0,0  l0.035,0.034l0.02,0.02l0.015,0.015l0.034,0.03l0.005,0.009l0.03,0.03l0.024,0.02l0.008,0.01l0.034,0.035l0.01,0.009l0.024,0.025  l0.03,0.029h0.002l0.034,0.04l0.015,0.015l0.018,0.015l0.034,0.035l0.003,0.004l0.029,0.03l0.021,0.02l0.014,0.015l0.03,0.034  l0.009,0.01l0.026,0.024l0.027,0.025l0.005,0.01l0.031,0.034l0.016,0.015l0.02,0.02l0.032,0.03v0.005l0.031,0.034l0.021,0.02  l0.012,0.015l0.032,0.034l0.005,0.005l0.029,0.03l0.023,0.024l0.009,0.01l0.032,0.034l0.01,0.015l0.021,0.02l0.028,0.029l0.006,0.01  l0.031,0.03l0.015,0.02l0.015,0.02l0.032,0.035l0.002,0.005l0.03,0.03l0.022,0.024l0.01,0.015l0.032,0.03l0.007,0.009l0.024,0.03  l0.025,0.03l0.005,0.005l0.032,0.034l0.012,0.02l0.021,0.02l0.028,0.034l0.029,0.035l0.032,0.039l0.03,0.03l0.029,0.04l0.029,0.034  l0,0l0.03,0.035l0.028,0.04l0.032,0.029l0.029,0.039l0.03,0.035l0.029,0.035l0.027,0.04l0,0l0.028,0.035v0.004l0.03,0.03l0.029,0.04  l0,0l0.03,0.039l0,0l0.029,0.035l0.027,0.034l0.028,0.04l0.03,0.034l0.027,0.035l0.029,0.04l0.027,0.04l0.026,0.034l0,0l0.03,0.035  l0.029,0.039l0,0l0.029,0.04l0,0l0.03,0.034l0,0l0.024,0.035l0.024,0.039l0.029,0.04l0.03,0.039l0.029,0.035l0.023,0.039l0,0  l0.025,0.035l0,0l0.029,0.039l0,0l0.03,0.04l0,0l0.029,0.039l0,0l0.02,0.039l0.029,0.035l0,0l0.03,0.039l0.024,0.035l0.024,0.039  l0.029,0.04l0,0l0.029,0.039l0,0l0.021,0.04l0.028,0.04l0,0l0.03,0.039l0,0l0.02,0.04l0,0l0.03,0.034l0,0l0.029,0.04l0.02,0.039l0,0  l0.029,0.04l0,0l0.025,0.039l0,0l0.023,0.039l0,0l0.03,0.04l0,0l0.02,0.034l0,0l0.03,0.045l0,0l0.023,0.039l0,0l0.025,0.039l0,0  l0.024,0.04l0,0l0.024,0.039l0,0l0.029,0.04l0,0l0.021,0.039c1.791-1.993,3.199-4.268,4.184-6.709  c0.108-0.281,0.218-0.561,0.314-0.837l0.011-0.02l0.029-0.078l0.011-0.02l0.019-0.075l0.011-0.024l0.02-0.069l0.02-0.034l0.02-0.059  l0.011-0.044l0.019-0.049l0.021-0.049l0.01-0.049l0.02-0.054l0.01-0.034l0.019-0.069l0.011-0.03l0.03-0.069v-0.024l0.028-0.079  l0.011-0.015l0.02-0.088l0.009-0.01l0.021-0.094l0,0l0.029-0.093v-0.01l0.03-0.089l0.01-0.009l0.02-0.088l0.01-0.02  c0.147-0.512,0.275-1.034,0.384-1.556l0.01-0.044C61.636,16.103,61.753,15.339,61.842,14.562L61.842,14.562z M50,90.127H24.795  c-0.738,0-1.336-0.596-1.336-1.334V45.157l-9.031,3.923c-0.669,0.286-1.447-0.015-1.742-0.679l0,0L5.144,31.609  c-0.297-0.675,0-1.457,0.669-1.758l0,0l29.894-13.547c-0.273-1.674-0.384-3.387-0.317-5.115c0-0.089,0.009-0.182,0.029-0.266  l0.008-0.024v-0.01l0.007-0.02l0.002-0.01c0.062-0.227,0.182-0.433,0.362-0.61c0.209-0.202,0.468-0.32,0.736-0.359h0.002  c0.042-0.004,0.082-0.01,0.123-0.01h0.013l0.002-0.005h0.047l0,0H50h13.28c0.738,0,1.338,0.601,1.338,1.339v0.054  c0.06,1.698-0.059,3.382-0.324,5.036l29.891,13.547c0.67,0.295,0.975,1.093,0.67,1.763c-0.011,0.02-0.02,0.044-0.029,0.064  l-7.513,16.723c-0.295,0.669-1.083,0.975-1.753,0.675l-0.049-0.02l-8.97-3.899v43.636c0,0.738-0.601,1.334-1.339,1.334H50L50,90.127  z M38.51,16.797c0.017,0.059,0.032,0.128,0.042,0.187c0.148,0.694,0.328,1.378,0.54,2.048l0.007,0.025l0.024,0.079l0.005,0.015  l0.027,0.089l0.002,0.01l0.03,0.088h0.002l0.032,0.098l0,0l0.032,0.094l0.003,0.005l0.029,0.088l0.005,0.015l0.026,0.078l0.008,0.02  l0.027,0.074l0.008,0.024l0.024,0.074l0.012,0.03l0.022,0.059l0.013,0.04l0.022,0.059l0.069,0.188l0.02,0.048l0.015,0.04  l0.061,0.158l0.013,0.029l0,0l0.074,0.188c0.984,2.442,2.395,4.716,4.182,6.709l0.025-0.039l0,0l0.024-0.04l0,0l0.024-0.039h0.003  l0.024-0.04l0,0l0.024-0.039l0,0l0.025-0.039l0,0l0.024-0.045h0.002l0.025-0.034l0,0l0.024-0.04l0,0l0.027-0.039l0,0l0.024-0.039  l0,0l0.024-0.04l0,0l0.027-0.039l0.027-0.04l0,0l0.024-0.034l0,0l0.027-0.04l0,0l0.025-0.039h0.002l0.024-0.04l0.027-0.04l0,0  l0.027-0.039l0,0l0.026-0.04l0.025-0.039l0.026-0.035l0.027-0.039l0,0l0.027-0.035l0.027-0.039l0,0l0.027-0.039l0,0l0.027-0.04l0,0  l0.027-0.039h0.002l0.027-0.035l0,0l0.027-0.039l0.026-0.035l0,0l0.027-0.039l0.029-0.04l0.027-0.039l0.027-0.035l0,0l0.027-0.034  l0,0l0.03-0.04l0,0l0.027-0.039l0.029-0.035l0,0l0.027-0.034l0.03-0.04l0.03-0.04l0.027-0.035l0.03-0.034l0.027-0.04l0.029-0.034  l0.03-0.035l0,0l0.03-0.039l0,0l0.029-0.04l0.027-0.03v-0.004l0.029-0.035l0,0l0.029-0.04l0.03-0.035l0.03-0.035l0.029-0.039  l0.029-0.029l0.03-0.04l0.029-0.035l0,0l0.032-0.034l0.03-0.04l0.029-0.03l0.029-0.039l0.032-0.035l0.03-0.034l0.02-0.02l0.012-0.02  l0.032-0.034l0.005-0.005l0.024-0.03l0.025-0.03l0.007-0.009l0.032-0.03l0.013-0.02l0.02-0.02l0.029-0.035l0,0l0.032-0.035  l0.018-0.02l0.015-0.02l0.032-0.03l0.005-0.01l0.027-0.029l0.024-0.025l0.007-0.01l0.032-0.034l0.032-0.035l0.032-0.035l0,0  l0.032-0.034l0.02-0.02l0.015-0.015l0.032-0.034l0.004-0.005l0.027-0.03l0.025-0.03l0.007-0.005l0.034-0.034l0.01-0.01l0.022-0.025  l0.03-0.035h0.005l0.032-0.034l0.018-0.015l0.015-0.02l0.035-0.034l0.002-0.005l0.029-0.03l0.025-0.02l0.01-0.01l0.032-0.04  l0.012-0.01l0.022-0.02l0.03-0.03l0.005-0.004l0.032-0.035l0.017-0.015l0.017-0.015l0.035-0.039h0.002l0.032-0.03l0.022-0.02  l0.012-0.015l0.032-0.034l0.009-0.01l0.025-0.02l0.029-0.029l0.005-0.005l0.035-0.034l0.017-0.01l0.017-0.02l0.035-0.035  l0.002-0.005l0.032-0.029l0.022-0.02l0.012-0.01l0.035-0.03l0.01-0.01l0.024-0.024l0.03-0.025l0.005-0.009l0.037-0.03l0.015-0.015  l0.02-0.02l0.034-0.034h0.003l0.034-0.03l0.02-0.02l0.015-0.01l0.034-0.03l0.008-0.01l0.027-0.024l0.03-0.025l0.007-0.01l0.037-0.03  l0.012-0.009l0.023-0.02l0.034-0.03h0.002l0.035-0.035l0.022-0.015L47.696,23l0.035-0.03l0.007-0.005l0.03-0.024l0.027-0.025  l0.008-0.005l-0.076-0.06l-0.013-0.009l-0.091-0.069l-0.01-0.01l-0.078-0.059l-0.032-0.024l-0.06-0.045l-0.052-0.039l-0.037-0.03  l-0.074-0.059l-0.017-0.01l-0.089-0.069l-0.005-0.01l-0.083-0.06l-0.027-0.024l-0.063-0.044l-0.047-0.039l-0.042-0.035l-0.069-0.054  l-0.02-0.015l-0.089-0.069l-0.003-0.005l-0.086-0.069l-0.022-0.015l-0.067-0.054l-0.044-0.03l-0.044-0.04l-0.066-0.049l-0.025-0.02  l-0.084-0.069h-0.005l-0.086-0.069l-0.02-0.02l-0.069-0.054l-0.039-0.029l-0.049-0.044l-0.059-0.045l-0.029-0.024l-0.082-0.059  l-0.007-0.01l-0.086-0.069l-0.015-0.009l-0.074-0.06l-0.034-0.029l-0.054-0.044l-0.089-0.074l-0.077-0.06l-0.009-0.009l-0.088-0.069  l-0.01-0.01l-0.076-0.063l-0.03-0.025l-0.059-0.048l-0.049-0.04l-0.037-0.029l-0.071-0.059l-0.017-0.01l-0.086-0.074l-0.005-0.005  l-0.081-0.069l-0.027-0.02l-0.062-0.049l-0.044-0.04L44.62,20.38l-0.067-0.059l-0.02-0.015l-0.086-0.074h-0.002l-0.084-0.069  l-0.022-0.02l-0.066-0.054l-0.04-0.034l-0.047-0.04l-0.061-0.049l-0.025-0.02l-0.081-0.069l-0.005-0.005l-0.085-0.074l-0.015-0.009  l-0.071-0.06l-0.037-0.035l-0.046-0.039l-0.06-0.049l-0.027-0.024l-0.079-0.064l-0.007-0.004L43.5,19.435l-0.013-0.01l-0.073-0.059  l-0.032-0.029l-0.052-0.044l-0.054-0.044l-0.032-0.03l-0.074-0.059l-0.009-0.01l-0.086-0.079l-0.007-0.005l-0.076-0.064l-0.03-0.029  l-0.057-0.049l-0.049-0.04l-0.034-0.03l-0.069-0.059l-0.017-0.015l-0.083-0.074l-0.005-0.005l-0.079-0.069l-0.025-0.02l-0.062-0.054  l-0.044-0.039l-0.039-0.035l-0.064-0.054l-0.02-0.02l-0.084-0.074l-0.066-0.054l-0.04-0.04l-0.024-0.02l-0.064-0.059l-0.014-0.01  l-0.049-0.049l-0.054-0.044l-0.012-0.01l-0.064-0.054l-0.029-0.029l-0.035-0.029l-0.066-0.06h-0.002l-0.062-0.059l-0.042-0.039  l-0.022-0.02l-0.064-0.054l-0.017-0.015l-0.047-0.044l-0.057-0.049l-0.007-0.005l-0.064-0.059l-0.035-0.03l-0.029-0.03l-0.067-0.059  l-0.007-0.005l-0.057-0.054l-0.044-0.04l-0.02-0.02l-0.064-0.054l-0.02-0.024l-0.044-0.035l-0.06-0.054l-0.005-0.005l-0.063-0.059  l-0.064-0.054l-0.064-0.059l-0.009-0.01l-0.054-0.049l-0.049-0.049l-0.013-0.01l-0.066-0.06l-0.125-0.118L40.302,16.6l-0.039-0.04  l-0.024-0.02l-0.064-0.059l-0.015-0.01l-0.049-0.049l-0.052-0.049l-0.009-0.01l-0.064-0.059l-0.029-0.029l-0.035-0.03l-0.064-0.059  h-0.002l-0.06-0.06l-0.042-0.04l-0.022-0.02l-0.064-0.059l-0.017-0.021l-0.044-0.039l-0.057-0.054l-0.007-0.005l-0.064-0.059  l-0.029-0.029l-0.032-0.03l-0.064-0.064l-0.007-0.005l-0.057-0.054l-0.044-0.044l-0.017-0.014l-0.064-0.064l-0.02-0.02l-0.042-0.039  l-0.059-0.054l-0.005-0.005l-0.062-0.059l-0.034-0.03l-0.03-0.029l-0.062-0.059l-0.009-0.009l-0.054-0.049l-0.049-0.049  l-0.013-0.015l-0.063-0.059l-0.025-0.025l-0.037-0.039l-0.062-0.059l0,0l-0.064-0.06l-0.037-0.04l-0.025-0.02l-0.061-0.059  l-0.015-0.021l-0.049-0.044l-0.052-0.054l-0.009-0.01l-0.062-0.059C38.242,15.315,38.357,16.058,38.51,16.797L38.51,16.797z   M26.132,87.454v-44.33c0-0.739-0.598-1.339-1.337-1.339c-0.233,0-0.455,0.064-0.646,0.167l-9.57,4.159L8.122,31.732l28.17-12.76  c0.258,0.935,0.571,1.86,0.936,2.762c0.987,2.446,2.351,4.73,4.054,6.783l0.077,0.094c0.125,0.147,0.253,0.295,0.384,0.443  l0.005,0.01l0.079,0.088h0.003l0.079,0.089l0.162,0.177l0.082,0.088l0.017,0.02l0.064,0.069l0.054,0.059l0.027,0.03l0.084,0.088  l0.004,0.005l0.079,0.084l0.04,0.039l0.044,0.044l0.074,0.079l0.009,0.01l0.084,0.083l0.027,0.029l0.012,0.01l0.089,0.088l0.02,0.02  l0.022,0.024l0.086,0.084L43,30.388l0.074,0.074l0.049,0.049l0.037,0.03l0.086,0.089c0.532,0.512,1.376,0.492,1.885-0.04  c0.116-0.118,0.205-0.256,0.266-0.394l0.024-0.049l0.005-0.009l0.025-0.05l0.005-0.01l0.024-0.049l0.005-0.01l0.024-0.049  l0.004-0.005l0.027-0.054h0.002l0.027-0.06h0.003l0.029-0.054v-0.005l0.03-0.049l0.002-0.004l0.029-0.054h0.002l0.03-0.059l0,0  l0.032-0.059l0,0l0.032-0.05v-0.004l0.03-0.054h0.002c0.052-0.099,0.106-0.188,0.16-0.276l0.005-0.009l0.029-0.049l0.005-0.01  l0.027-0.039l0.008-0.015l0.024-0.044l0.007-0.01l0.027-0.044l0.007-0.015l0.027-0.04l0.007-0.009l0.027-0.045l0.007-0.015  l0.027-0.039l0.007-0.015l0.027-0.039l0.009-0.015l0.025-0.039l0.01-0.02l0.06-0.089l0.012-0.02l0.022-0.034l0.014-0.02l0.023-0.035  l0.012-0.02l0.022-0.03l0.015-0.025l0.022-0.034l0.015-0.02l0.02-0.029l0.018-0.025l0.02-0.029l0.017-0.025l0.02-0.03l0.018-0.024  l0.02-0.024l0.017-0.03l0.02-0.024l0.02-0.03l0.018-0.024l0.02-0.03l0.017-0.02l0.074-0.109l0.024-0.029l0.015-0.02l0.022-0.029  l0.015-0.02l0.024-0.039l0.015-0.015l0.025-0.035l0.012-0.02l0.027-0.03l0.013-0.02l0.026-0.035l0.013-0.015l0.039-0.049l0.027-0.04  l0.012-0.015l0.03-0.039l0.01-0.015l0.029-0.039l0.01-0.01l0.03-0.039l0.009-0.01l0.032-0.039l0.007-0.01l0.035-0.04l0.005-0.01  l0.035-0.044l0.007-0.005l0.035-0.049h0.005l0.037-0.049h0.005l0.037-0.049l0.005-0.005l0.037-0.044l0.002-0.005l0.04-0.044  l0.002-0.005l0.039-0.044l0.002-0.005l0.042-0.044v-0.005l0.042-0.049c0.697-0.812,1.474-1.556,2.321-2.225  c0.847,0.669,1.623,1.413,2.322,2.225c0.912,1.059,1.69,2.23,2.315,3.48c0.329,0.655,1.13,0.921,1.789,0.591  c0.118-0.059,0.227-0.138,0.325-0.226l0,0l0.089-0.089l0.034-0.03l0.054-0.049l0.069-0.074l0.016-0.015l0.083-0.084l0.024-0.024  l0.02-0.02l0.089-0.088l0.015-0.01l0.024-0.029l0.083-0.083l0.011-0.01l0.074-0.079l0.044-0.044l0.039-0.039l0.078-0.084  l0.005-0.005l0.085-0.088l0.029-0.03l0.049-0.059l0.064-0.069l0.019-0.02l0.085-0.088l0.156-0.177l0.08-0.089h0.005l0.073-0.088  l0.01-0.01c0.129-0.148,0.256-0.295,0.384-0.443l0.079-0.094c1.703-2.053,3.063-4.337,4.047-6.783  c0.363-0.901,0.679-1.827,0.945-2.762l28.168,12.76l-6.459,14.379l-9.688-4.208c-0.679-0.295-1.456,0.02-1.752,0.694  c-0.079,0.172-0.108,0.35-0.108,0.527h-0.01v44.33H50H26.132L26.132,87.454z M43.994,16.333l-0.066-0.059l-0.038-0.035l-0.027-0.025  l-0.066-0.059l-0.009-0.01l-0.055-0.049l-0.049-0.04l-0.018-0.015l-0.064-0.059l-0.02-0.015l-0.047-0.039l-0.057-0.054l-0.007-0.005  l-0.066-0.059l-0.03-0.029l-0.035-0.03l-0.066-0.059l0,0l-0.063-0.059l-0.04-0.03l-0.024-0.029l-0.066-0.06l-0.01-0.009  l-0.054-0.044l-0.047-0.044l-0.018-0.015l-0.064-0.059l-0.022-0.021l-0.042-0.034l-0.059-0.059h-0.007l-0.064-0.059l-0.03-0.03  l-0.035-0.03l-0.063-0.059l-0.002-0.004l-0.062-0.054l-0.042-0.04l-0.022-0.02l-0.063-0.059l-0.015-0.01l-0.049-0.049l-0.052-0.049  l-0.012-0.01L42.183,14.7l-0.022-0.02l-0.042-0.04l-0.061-0.054l-0.002-0.005l-0.064-0.059l-0.032-0.03l-0.032-0.03l-0.064-0.059  l-0.005-0.005l-0.059-0.055l-0.042-0.039l-0.021-0.02l-0.063-0.059l-0.015-0.015l-0.049-0.044l-0.052-0.049l-0.013-0.01  l-0.061-0.059l-0.027-0.025l-0.037-0.035l-0.061-0.059h-0.002l-0.064-0.059l-0.032-0.034l-0.03-0.025l-0.063-0.059l-0.008-0.01  l-0.054-0.054l-0.044-0.039l-0.02-0.02l-0.062-0.06l-0.017-0.014l-0.047-0.049l-0.052-0.049l-0.01-0.01L40.79,13.39l-0.024-0.024  l-0.037-0.035l-0.062-0.06h-0.002l-0.062-0.059l-0.037-0.035l-0.024-0.025l-0.064-0.059l-0.007-0.01l-0.054-0.054l-0.044-0.044  l-0.018-0.015l-0.063-0.064l-0.017-0.014l-0.044-0.044l-0.054-0.049l-0.007-0.01l-0.062-0.06l-0.026-0.029l-0.035-0.03l-0.064-0.059  v-0.005l-0.062-0.059H50h10.079l-0.06,0.059v0.005l-0.058,0.059l-0.039,0.03l-0.03,0.029l-0.06,0.06l-0.009,0.01l-0.051,0.049  l-0.049,0.044l-0.014,0.014l-0.064,0.064l-0.021,0.015l-0.039,0.044l-0.06,0.054l-0.009,0.01l-0.06,0.059l-0.028,0.025l-0.03,0.035  l-0.068,0.059l0,0l-0.06,0.06l-0.04,0.035l-0.02,0.024l-0.069,0.059l-0.01,0.01l-0.049,0.049l-0.05,0.049l-0.014,0.014l-0.064,0.06  l-0.019,0.02l-0.041,0.039l-0.059,0.054l-0.004,0.01l-0.064,0.059l-0.03,0.025l-0.034,0.034l-0.064,0.059l0,0l-0.059,0.059  l-0.04,0.035l-0.029,0.025l-0.059,0.059l-0.011,0.01l-0.053,0.049l-0.049,0.044l-0.016,0.015l-0.064,0.059l-0.023,0.02l-0.041,0.039  l-0.058,0.055v0.005l-0.069,0.059l-0.029,0.03l-0.03,0.03l-0.068,0.059v0.005l-0.06,0.054l-0.044,0.04l-0.025,0.02l-0.059,0.059  l-0.02,0.01l-0.049,0.049l-0.05,0.049l-0.01,0.01l-0.069,0.059l-0.019,0.02l-0.041,0.04l-0.063,0.054l-0.006,0.004l-0.059,0.059  l-0.039,0.03l-0.029,0.03l-0.064,0.059h-0.005l-0.06,0.059l-0.039,0.034l-0.025,0.021l-0.063,0.059l-0.021,0.015l-0.044,0.044  l-0.055,0.044l-0.01,0.009l-0.068,0.06l-0.025,0.029l-0.034,0.03l-0.069,0.059l0,0l-0.064,0.059l-0.034,0.03l-0.028,0.029  l-0.069,0.059l-0.006,0.005l-0.054,0.054l-0.048,0.039l-0.021,0.015l-0.064,0.059l-0.019,0.015l-0.046,0.04l-0.058,0.049  l-0.011,0.01l-0.063,0.059l-0.024,0.025l-0.039,0.035l-0.069,0.059l-0.089,0.079l-0.01,0.01l-0.078,0.069l-0.03,0.02l-0.069,0.06  l-0.029,0.035l-0.06,0.048l-0.049,0.04l-0.039,0.039l-0.06,0.054l-0.039,0.03l-0.069,0.059l-0.02,0.02l-0.084,0.069l-0.009,0.01  l-0.094,0.078l0,0l-0.089,0.079l-0.02,0.01l-0.074,0.069l-0.027,0.02l-0.063,0.06l-0.04,0.034l-0.053,0.044l-0.053,0.044  l-0.042,0.034L54.654,17.5l-0.029,0.024l-0.076,0.064l-0.017,0.015l-0.087,0.074l-0.007,0.005l-0.092,0.079l-0.008,0.004  l-0.085,0.074l-0.018,0.015l-0.076,0.064l-0.03,0.024l-0.064,0.054l-0.041,0.03l-0.049,0.049l-0.055,0.039l-0.039,0.035  l-0.066,0.054l-0.027,0.024l-0.079,0.064l-0.014,0.015l-0.092,0.074h-0.003l-0.094,0.079l-0.009,0.01l-0.084,0.069l-0.02,0.02  l-0.074,0.06l-0.032,0.024l-0.062,0.049l-0.044,0.035l-0.049,0.039l-0.057,0.049l-0.037,0.03l-0.071,0.059l-0.025,0.02l-0.081,0.064  l-0.012,0.015l-0.094,0.069v0.005l-0.094,0.074l-0.012,0.01l-0.081,0.069l-0.025,0.02l-0.071,0.054l-0.034,0.029l-0.06,0.044  l-0.049,0.04l-0.044,0.039l-0.062,0.049l-0.034,0.025l-0.071,0.059l-0.023,0.015l-0.085,0.069l-0.104,0.084l-0.003,0.005  l-0.094,0.069L51.8,19.838l-0.082,0.069l-0.026,0.02l-0.068,0.049l-0.041,0.034l-0.054,0.045l-0.052,0.039l-0.044,0.035  l-0.062,0.049l-0.035,0.024l-0.073,0.059l-0.02,0.015l-0.089,0.069l-0.007,0.005l-0.094,0.074l-0.005,0.005l-0.091,0.069  l-0.017,0.015l-0.079,0.059l-0.03,0.025l-0.066,0.049l-0.042,0.03L50.67,20.72l-0.16,0.123l-0.03,0.02l-0.096,0.079l-0.091,0.069  h-0.005l-0.096,0.074l-0.007,0.005l-0.088,0.069l-0.02,0.015L50,21.227l-0.076-0.054l-0.02-0.015l-0.089-0.069l-0.007-0.005  l-0.097-0.074h-0.004l-0.091-0.069l-0.096-0.079l-0.03-0.02l-0.16-0.123l-0.054-0.044l-0.042-0.03l-0.066-0.049l-0.03-0.025  l-0.079-0.059l-0.017-0.015l-0.091-0.069l-0.005-0.005l-0.096-0.074l-0.007-0.005l-0.086-0.069l-0.02-0.015l-0.076-0.059  l-0.032-0.024l-0.061-0.049l-0.044-0.035l-0.052-0.039l-0.057-0.045l-0.039-0.034l-0.067-0.049l-0.027-0.02l-0.081-0.069  l-0.015-0.009l-0.091-0.069l-0.003-0.005l-0.106-0.084l-0.083-0.069l-0.022-0.015l-0.074-0.059l-0.032-0.025l-0.062-0.049  l-0.047-0.039l-0.047-0.04l-0.059-0.044l-0.037-0.029l-0.069-0.054l-0.024-0.02l-0.082-0.069l-0.012-0.01l-0.094-0.074l-0.002-0.005  l-0.094-0.069l-0.012-0.015l-0.082-0.064l-0.024-0.02l-0.069-0.059l-0.037-0.03l-0.057-0.049l-0.049-0.039l-0.045-0.035  l-0.061-0.049l-0.032-0.024l-0.074-0.06l-0.02-0.02L46.5,18.47l-0.007-0.01l-0.093-0.079h-0.005l-0.089-0.074l-0.014-0.015  l-0.079-0.064l-0.027-0.024l-0.066-0.054l-0.04-0.035l-0.054-0.039l-0.052-0.049l-0.042-0.03l-0.062-0.054l-0.029-0.024  l-0.077-0.064l-0.017-0.015l-0.085-0.074l-0.008-0.004l-0.093-0.079l-0.005-0.005l-0.086-0.074l-0.017-0.015l-0.077-0.064  L45.346,17.5l-0.062-0.054l-0.045-0.034l-0.048-0.044l-0.054-0.044l-0.04-0.034l-0.063-0.06l-0.027-0.02l-0.079-0.069l-0.015-0.01  l-0.089-0.079h-0.002l-0.094-0.078l-0.007-0.01l-0.084-0.069l-0.02-0.02l-0.071-0.059l-0.035-0.03l-0.059-0.054l-0.045-0.039  l-0.047-0.04l-0.057-0.048L44.27,16.57l-0.069-0.06l-0.024-0.02l-0.079-0.069l-0.012-0.01L43.994,16.333z"/></svg>