<svg xmlns="http://www.w3.org/2000/svg" xmlns:xlink="http://www.w3.org/1999/xlink" version="1.1" x="0px" y="0px" viewBox="0 0 100 125" enable-background="new 0 0 100 100" xml:space="preserve"><path d="M36.5,26.4c-7.6,2-12.5,9-11.9,16.8l3.1,29.7c0.5,4.899,4.6,8.6,9.5,8.6c5.2,0,9.4-4,9.6-9.2l1.5-36.6  C48.3,29.072,42.197,24.829,36.5,26.4z M37.2,79.5c-3.9,0-7.1-2.9-7.6-6.8l-1.5-13.9c1.3-10.4,8.7-15.4,10.7-16.6  c1.2,0.9,4.8,3.9,6.7,10.3l-0.8,19.7C44.7,76.3,41.3,79.5,37.2,79.5z M45.8,47.5c-2.1-4.1-4.7-6.3-5.8-7V37c0-1.342-2-1.34-2,0v3.4  c-1.8,1.1-7.6,5-10.4,12.5l-1-10C26,36.2,30.4,30,37,28.3c4.233-1.409,9.512,2.322,9.3,7.4L45.8,47.5z M63.5,19.3  c-5.702-1.573-11.8,2.676-11.8,9.3l1.5,36.6c0.2,5.2,4.399,9.2,9.6,9.2c4.9,0,9-3.7,9.5-8.601L75.4,36.1  C76.1,28.4,71.1,21.3,63.5,19.3z M62.8,72.5c-4.1,0-7.399-3.2-7.6-7.3l-0.8-19.7C56.3,39.1,59.8,36.1,61.1,35.2  c2,1.2,9.4,6.2,10.7,16.6l-1.5,13.9C69.9,69.6,66.7,72.5,62.8,72.5z M73.4,36l-1,10C69.6,38.5,63.8,34.5,62,33.5V30  c0-1.342-2-1.341-2,0v3.5c-1.1,0.8-3.7,2.9-5.8,7l-0.5-11.9c0-4.392,3.451-8.376,9.3-7.4C69.6,23,74,29.2,73.4,36z"/></svg>