<svg xmlns="http://www.w3.org/2000/svg" viewBox="0 0 64 80" x="0px" y="0px"><g><path d="M30,62a1,1,0,0,0,.894-.553L32,59.236l1.1,2.211A1,1,0,0,0,34,62H56a1,1,0,0,0,1-1V9a1,1,0,0,0-.485-.857l-10-6A1,1,0,0,0,46,2H18a1,1,0,0,0-.515.143l-10,6A1,1,0,0,0,7,9V61a1,1,0,0,0,1,1ZM9,60V56h8v4Zm46,0H47V56h8ZM39.293,19.707l1.453,1.453L34.415,31.922,39.379,10.2l1.145-5.012,3.289,3.946L39.1,18.553A1,1,0,0,0,39.293,19.707ZM29.585,31.922,23.254,21.16l1.453-1.453a1,1,0,0,0,.187-1.154L20.186,9.138l3.289-3.946L24.621,10.2ZM32,33.512,27.784,15.067l-.275-1.2c.015.009.027.022.044.031A1,1,0,0,0,28.6,13.8L32,11.249,35.4,13.8a1,1,0,0,0,1.047.095c.016-.009.029-.022.044-.031l-.275,1.2ZM29,11V9l1.333,1Zm4.667-1L35,9v2ZM37,11.638V7a1,1,0,0,0-1.6-.8L32,8.751,28.6,6.2A1,1,0,0,0,27,7v4.638L25.254,4H38.746ZM18.277,4h3.588L18.231,8.36a1,1,0,0,0-.126,1.087L22.783,18.8l-1.49,1.49a1,1,0,0,0-.155,1.214L31,38.273V53a1,1,0,0,0,2,0V38.273l9.862-16.766a1,1,0,0,0-.155-1.214l-1.49-1.49,4.677-9.356a1,1,0,0,0-.125-1.087L42.135,4h3.588L55,9.566V54H47V23a1,1,0,0,0-2,0V60H34.618l-1.724-3.447a1.041,1.041,0,0,0-1.789,0L29.382,60H19V23a1,1,0,0,0-2,0V54H9V9.566Z"/><path d="M22,53h6a1,1,0,0,0,0-2H22a1,1,0,0,0,0,2Z"/><path d="M36,53h6a1,1,0,0,0,0-2H36a1,1,0,0,0,0,2Z"/></g></svg>