<svg xmlns="http://www.w3.org/2000/svg" xmlns:xlink="http://www.w3.org/1999/xlink" version="1.1" x="0px" y="0px" viewBox="0 0 100 125" enable-background="new 0 0 100 100" xml:space="preserve"><path fill-rule="evenodd" clip-rule="evenodd" d="M2,38c0-3,3-3,21-3c0,0,9.018,0,12,0c12,0,9,3,15,3s3-3,15-3c2.982,0,12,0,12,0  c18,0,21,0,21,3v3c0,3-2.145,0.87-3,6c-3,18-6,21-21,21c-4.904,0-3,0-3,0s-12,0-15-9c-3.911-11.735-1.714-12-6-12s-2.089,0.265-6,12  c-3,9-15,9-15,9s1.907,0-3,0C11,68,8,65,5,47c-0.855-5.13-3-3-3-6V38L2,38z M93.5,38c-0.829,0-1.5,0.671-1.5,1.5s0.671,1.5,1.5,1.5  s1.5-0.671,1.5-1.5S94.329,38,93.5,38L93.5,38z M6.5,38C5.671,38,5,38.671,5,39.5S5.671,41,6.5,41S8,40.329,8,39.5S7.329,38,6.5,38  L6.5,38z M58.892,58.177C61.268,64.37,68.308,65,74,65c3.621,0,9.319-0.023,12.243-2.309c3.727-2.911,4.734-10.538,5.587-14.995  c0.507-2.666,0.36-5.504-1.72-7.496C87.541,37.736,83.308,38,80,38c-5.001,0-9.999,0-15,0c-3.179,0-6.454,0.823-8.227,3.7  C53.917,46.338,57.107,53.53,58.892,58.177L58.892,58.177z M41.108,58.177c1.784-4.646,4.975-11.839,2.121-16.477  C41.457,38.823,38.179,38,35,38c-5.001,0-9.999,0-15,0c-3.308,0-7.538-0.264-10.11,2.2c-2.08,1.992-2.227,4.83-1.717,7.496  c0.853,4.457,1.857,12.084,5.584,14.995C16.681,64.977,22.382,65,26,65C31.695,65,38.732,64.37,41.108,58.177z"/><text x="0" y="115" fill="#000000" font-size="5px" font-weight="bold" font-family="'Helvetica Neue', Helvetica, Arial-Unicode, Arial, Sans-serif">Created by Stanislav Levin</text><text x="0" y="120" fill="#000000" font-size="5px" font-weight="bold" font-family="'Helvetica Neue', Helvetica, Arial-Unicode, Arial, Sans-serif">from the Noun Project</text></svg>